<?xml version="1.0" encoding="UTF-8"?>
<svg width="20px" height="16px" viewBox="0 0 20 16" version="1.1" xmlns="http://www.w3.org/2000/svg" xmlns:xlink="http://www.w3.org/1999/xlink">
    <title>Fill</title>
    <g id="Symbols" stroke="none" stroke-width="1" fill="none" fill-rule="evenodd">
        <g id="components/icons/campaign" transform="translate(-2.000000, -4.000000)" fill="#000000">
            <path d="M18,11 L18,13 L22,13 L22,11 L18,11 Z M16,17.61 C16.96,18.32 18.21,19.26 19.2,20 C19.6,19.47 20,18.93 20.4,18.4 C19.41,17.66 18.16,16.72 17.2,16 C16.8,16.54 16.4,17.08 16,17.61 Z M20.4,5.6 C20,5.07 19.6,4.53 19.2,4 C18.21,4.74 16.96,5.68 16,6.4 C16.4,6.93 16.8,7.47 17.2,8 C18.16,7.28 19.41,6.35 20.4,5.6 Z M4,9 C2.9,9 2,9.9 2,11 L2,13 C2,14.1 2.9,15 4,15 L5,15 L5,19 L7,19 L7,15 L8,15 L13,18 L13,6 L8,9 L4,9 Z M15.5,12 C15.5,10.67 14.92,9.47 14,8.65 L14,15.34 C14.92,14.53 15.5,13.33 15.5,12 Z" id="Fill"></path>
        </g>
    </g>
</svg>