<svg xmlns="http://www.w3.org/2000/svg" viewBox="0 0 212.05 387.99"><defs><style>.cls-1{fill:none;}.cls-2{fill:#fff;}</style></defs><g id="Layer_2" data-name="Layer 2"><g id="Layer_1-2" data-name="Layer 1"><polygon class="cls-1" points="32.03 348.43 50.27 348.43 41.15 287.55 32.03 348.43"/><path class="cls-1" d="M63.08,80.67q5.07,5.08,7.72,7.88,2.63-2,8.09-6.16t7.55-5.84l6.07-5a52.66,52.66,0,0,0,5.59-5.06c1.11-1.17,2.45-2.71,4.07-4.58a20.19,20.19,0,0,0,3.34-5,49.68,49.68,0,0,0,1.69-5,20.07,20.07,0,0,0,.79-5.7c0-6.42-2.69-12-8-16.8s-12.22-7.15-20.63-7.15a36.6,36.6,0,0,0-24.19,8.48Q45,39.22,45,50.74a27.34,27.34,0,0,0,1.15,7.93,25.2,25.2,0,0,0,4.24,7.7c2,2.65,3.78,4.86,5.33,6.61S59.74,77.33,63.08,80.67Z"/><path class="cls-2" d="M28.25,266.22,9,386.62H26.36l3.27-21.85H52.84l3.27,21.85H75.2L55.94,266.22ZM32,348.43l9.12-60.88,9.12,60.88Z"/><path class="cls-2" d="M107.2,264.85c-18.58,0-28.21,11-28.21,30.27v62.6C79,377,88.62,388,107.2,388s28.2-11,28.2-30.27v-16H117.52v17.19c0,8.61-3.79,11.7-9.81,11.7s-9.8-3.09-9.8-11.7v-65c0-8.6,3.78-11.87,9.8-11.87s9.81,3.27,9.81,11.87v12.9H135.4V295.12C135.4,275.85,125.77,264.85,107.2,264.85Z"/><polygon class="cls-2" points="151.23 386.62 170.15 386.62 170.15 336.91 194.57 336.91 194.57 319.71 170.15 319.71 170.15 283.42 201.28 283.42 201.28 266.22 151.23 266.22 151.23 386.62"/><path class="cls-2" d="M200.46,117c-2.81,1.53-85.1,66.44-87.18,68.29s-5.26,4.49-9.57,7.87a75.71,75.71,0,0,1-11.89,7.85A84.83,84.83,0,0,1,79,206.19a48.45,48.45,0,0,1-14.69,2.33q-16.48,0-27.38-10.34a33.24,33.24,0,0,1-10.89-25,40.59,40.59,0,0,1,2.79-15,45.7,45.7,0,0,1,9-13.93,132.3,132.3,0,0,1,10.72-10.81q4.48-4,13.23-10.81c1.64-1.34,2.9-2.35,3.73-3L85.27,104Q87,102.54,93,97.8c4.08-3.17,6.89-5.42,8.51-6.77s4.2-3.58,7.76-6.68a89.52,89.52,0,0,0,8-7.64c1.71-2,3.82-4.56,6.36-7.77a42.76,42.76,0,0,0,5.61-8.8,63.65,63.65,0,0,0,3.18-9,37,37,0,0,0,1.42-9.94q0-17.75-14.2-29.48T82,0Q55.38,0,37.19,13.78T19,49.33q0,17,12.14,33.45,4.81,6.56,19.29,21.48l-4.9,3.81c-2.85,2.24-4.91,3.81-6.16,4.75S36,115.52,33,118.11s-5.28,4.72-6.84,6.38-3.68,4-6.37,6.93a63.33,63.33,0,0,0-6.39,8c-1.55,2.38-3.31,5.27-5.22,8.71A55.57,55.57,0,0,0,3.72,158a87.4,87.4,0,0,0-2.63,10.5A60.64,60.64,0,0,0,0,180.2Q0,202.61,14.78,217t40.61,14.4a98.68,98.68,0,0,0,22.73-2.63,100.14,100.14,0,0,0,18.73-6.25,97.46,97.46,0,0,0,16-9.56,151.33,151.33,0,0,0,12.75-10c3-2.63,9.75-9.14,11.92-9.73s55.82,37.05,58.13,37.49c3.49.66,9.13-5.78,4.14-10.42-3.75-3.48-46.83-39.55-45-44.09,1.85-4,48.24-45.93,49.23-46.79C212.05,122.45,206.58,113.72,200.46,117ZM50.36,66.37a25.2,25.2,0,0,1-4.24-7.7A27.34,27.34,0,0,1,45,50.74q0-11.55,10.19-20a36.6,36.6,0,0,1,24.19-8.48Q92,22.26,100,29.41c5.32,4.76,8,10.38,8,16.8a20.07,20.07,0,0,1-.79,5.7,49.68,49.68,0,0,1-1.69,5,20.19,20.19,0,0,1-3.34,5c-1.62,1.87-3,3.41-4.07,4.58a52.66,52.66,0,0,1-5.59,5.06l-6.07,5q-2.1,1.73-7.55,5.84T70.8,88.55q-2.64-2.8-7.72-7.88c-3.34-3.34-5.82-5.93-7.39-7.69S52.36,69,50.36,66.37Z"/><path class="cls-2" d="M180.6,65.73a59.32,59.32,0,0,0-16.15-1.91c-18.94.53-34.26,10.7-38.17,25.34a38.66,38.66,0,0,0,.33,20.45c-17.47,3.79-31.79,16.82-35.86,34.93-3.1,23.68,4.93,39.71,7.14,40.36s3.83-1.62,3.51-4.23c-.77-6.25-5.09-18.78,3.56-32.4,7.74-12.19,24.14-24.64,40.42-26.93,0,0-.13,0,1-.13s1.81-2.1,1.56-2.88l-.24-.78c-.05-.13-4-12.58-1.66-21.31,2.27-8.53,11.31-14.11,21.88-15,28.13-2,39.33,29.05,40.25,30.21,2.06,2.6,3.66-.62,3.66-.62C213.42,108.49,207.51,72.78,180.6,65.73Z"/></g></g></svg>