<svg xmlns="http://www.w3.org/2000/svg" viewBox="0 0 196.14 205.38"><defs><style>.cls-1{fill:#fff;}</style></defs><g id="Layer_2" data-name="Layer 2"><g id="Layer_1-2" data-name="Layer 1"><path class="cls-1" d="M189.43,49.68a.43.43,0,0,1-.19,0c-7.84-3.41-16.55-5.07-26.61-5.07S141.92,46.29,132.91,48a.47.47,0,0,1-.46-.19l-.61-.84c-.91-1.25-2.62-3.59-2.8-5a.44.44,0,0,1,.13-.37,8.07,8.07,0,0,0,2.8-5.26c0-.3.08-.79.12-1.39l0-.58a.43.43,0,0,1,.37-.39c12.18-2.34,22.34-3.89,32.35-3.89,10.2,0,19,1.69,27,5.15a.41.41,0,0,1,.26.46l-2.22,13.61a.45.45,0,0,1-.23.32.54.54,0,0,1-.22,0Z"/><path class="cls-1" d="M193.46,25a.41.41,0,0,1-.19,0c-7.85-3.41-16.55-5.07-26.62-5.07s-20.05,1.55-32.17,3.87a.49.49,0,0,1-.36-.07.42.42,0,0,1-.18-.3A25.26,25.26,0,0,0,131.23,15a17.25,17.25,0,0,0-2.45-3.45.43.43,0,0,1-.09-.43.46.46,0,0,1,.34-.28l1.16-.23C143,8.05,156.24,5.45,168.88,5.45c10.19,0,19,1.69,27,5.15a.42.42,0,0,1,.26.46l-2.22,13.61a.44.44,0,0,1-.24.32.38.38,0,0,1-.21.05Z"/><path class="cls-1" d="M108.5,100.41a.47.47,0,0,1-.4-.23,41,41,0,0,0-7.1-9.82.43.43,0,0,1-.08-.51c.41-.77.8-1.51,1.19-2.22a.43.43,0,0,1,.32-.23c5.2-.86,10.53-1.9,15.67-2.91,12.81-2.52,26.06-5.12,38.69-5.12,10.2,0,19,1.68,27,5.15a.44.44,0,0,1,.26.46l-2.23,13.61a.45.45,0,0,1-.23.32.47.47,0,0,1-.4,0c-7.85-3.41-16.56-5.07-26.63-5.07-12.54,0-25.74,2.59-38.5,5.1-2.49.49-5,1-7.47,1.45Z"/><path class="cls-1" d="M185.4,74.32a.39.39,0,0,1-.18,0c-7.85-3.41-16.56-5.07-26.62-5.07-11.15,0-22.81,2.07-32.86,4a.45.45,0,0,1-.4-.11.49.49,0,0,1-.14-.37,5.94,5.94,0,0,1,.21-2.52c1-1.65,2.26-1.33,3-3.14a4.62,4.62,0,0,0,.07-2.66.41.41,0,0,1,.18-.44l.14-.11a5,5,0,0,0,2.05-5.22.38.38,0,0,1,.05-.34.46.46,0,0,1,.3-.19c9-1.67,19.5-3.38,29.66-3.38s19,1.69,27,5.15a.41.41,0,0,1,.26.46L185.85,74a.45.45,0,0,1-.23.32.54.54,0,0,1-.22,0Z"/><path class="cls-1" d="M177.34,123.6a.39.39,0,0,1-.18,0c-7.85-3.41-16.56-5.07-26.62-5.07S130,120.17,120.36,122a.45.45,0,0,1-.52-.31c-.18-.59-1.2-2.48-6.42-11.84a.43.43,0,0,1,.31-.63l.35-.07c12.8-2.52,26.05-5.12,38.68-5.12,10.2,0,19,1.68,27,5.15a.44.44,0,0,1,.26.46l-2.23,13.61a.45.45,0,0,1-.23.32.54.54,0,0,1-.22,0Z"/><path class="cls-1" d="M93.84,126a.23.23,0,0,1-.2-.15c0-.19-5.43-18.88-7-23.36C83,92,76.62,89,76.56,89a.16.16,0,0,1-.11-.13.16.16,0,0,1,0-.16l6.64-11.47c.6-1,1.84-1.51,3.59-1.56H87l1,0c.44,0,.94,0,1.46,0,1.75,0,4.26-.16,5.77-1.59a2.52,2.52,0,0,0,.93-2.68,3.3,3.3,0,0,1,0-1.33c.22-.82.93-.94,1.49-1a1.6,1.6,0,0,0,.8-.28,1.8,1.8,0,0,0,.5-1.59c-.34-.81-1.81-1-2.34-1a.21.21,0,0,1-.21-.18.22.22,0,0,1,.16-.23s2.79-.67,3.61-1.81a2,2,0,0,0,.23-1.55c0-.14-.17-.2-.4-.3-.45-.18-1.13-.47-1-1.78,0-.41.53-.53,1.08-.66.92-.22,2.06-.49,2.31-2,.2-1.2-.56-1.78-1.51-2.51-1.19-.91-2.66-2-2.45-4.76A6.24,6.24,0,0,1,99.71,47a4.69,4.69,0,0,0,1-4.08,20.05,20.05,0,0,1-.15-4.5,19.82,19.82,0,0,0,0-3.44A12.32,12.32,0,0,0,99,29.88a.23.23,0,0,1,0-.16c.6-2.87-2.24-4.76-2.82-5.11a3.27,3.27,0,0,1-.89-1.05A5.23,5.23,0,0,0,93.85,22,6.86,6.86,0,0,0,91.56,21a6,6,0,0,1-1.32-.46,2.5,2.5,0,0,1-.76-.76,4.21,4.21,0,0,0-1.74-1.46,10,10,0,0,0-2.91-.84,7.18,7.18,0,0,1-1.26-.29,7.82,7.82,0,0,1-1.27-.73,7.18,7.18,0,0,0-2.39-1.14,9.15,9.15,0,0,0-2.91,0,8.62,8.62,0,0,1-1.57.07A2.92,2.92,0,0,1,74.36,15a5.25,5.25,0,0,0-2.83-.52,8.27,8.27,0,0,0-2.61.56,7.36,7.36,0,0,1-1.45.4,5.77,5.77,0,0,1-1.16,0,6.43,6.43,0,0,0-1.75.14,13.42,13.42,0,0,0-2.62,1.18.23.23,0,0,1-.29-.07.22.22,0,0,1,0-.21c3.23-6,8.66-10.29,16.62-13.06a5.32,5.32,0,0,0,.5-.21C80.66,2.43,86.61-.21,92.56,0c8.39.34,11.9,2,15,3.49a30.92,30.92,0,0,0,3,1.34C119.34,8,125,12,127.33,16.6a21.66,21.66,0,0,1,2.41,11,5.52,5.52,0,0,1-1.19,2.11l-.08.1a28.45,28.45,0,0,0-.64,5.16c0,.54-.07,1-.1,1.27a5.38,5.38,0,0,1-1.93,3.53,2.52,2.52,0,0,0-.75.92c-.79,2.69,1.36,5.76,3.09,8.23,1.3,1.85,2.33,3.32,2.05,4.35C129.74,55,128,55.56,126.86,56c-.44.15-1,.36-1.07.51a3.21,3.21,0,0,0,.85,2.58,2.39,2.39,0,0,1-.68,2.87A5.1,5.1,0,0,1,123.79,63a3.22,3.22,0,0,1,1,.92c.66,1,0,2.13-1.18,2.83a3.86,3.86,0,0,0-2.27,3,6.7,6.7,0,0,0-.13,1.68c.08,1.27.17,2.7-2.13,4.22a10.35,10.35,0,0,1-6,1.61c-.91,0-1.83-.07-2.52-.13a16,16,0,0,1-1.71-.25,11.2,11.2,0,0,0-2.09-.27,3.37,3.37,0,0,0-2.14.67c-.77.58-5,8.61-7.67,14,.87.52,4.59,3.17,9.28,12.78,9.9,18.48,9.9,18.49,9.91,18.54a.22.22,0,0,1-.15.23A149.22,149.22,0,0,1,93.85,126Z"/><path class="cls-1" d="M81.18,59.18A8,8,0,0,1,79,55.74a5.68,5.68,0,0,1,.16-4.32,15.57,15.57,0,0,0,.9-6.78A36.75,36.75,0,0,0,79.4,40a6.74,6.74,0,0,0-1.23-5.89c-4-5.56-15.25-9.54-23.45-10-.66,0-1.32-.06-1.95-.06-15.06,0-21.08,11.59-21.46,19.38-.24,5,3.71,13.41,4.15,14.33-.46,1.63-1.7,2.3-3.28,3.14a13.49,13.49,0,0,0-5,4c-6.33,8.52-1.06,23.65,7.11,33.56a74.71,74.71,0,0,0,38.11,25h.05a.2.2,0,0,0,.15-.06.22.22,0,0,0,.06-.19L67.53,99.9c-2.09-9.48-6.73-13.74-7.64-14.49l5.14-8c.71-1,2.37-1.09,3.73-1.09.71,0,1.47,0,2.2.07s1.44.08,2.11.08a4.8,4.8,0,0,0,3.14-.72c1.33-1.12,1.07-2.44.84-3.6L77,72c-.22-1.14.46-1.48,1.11-1.8a1.62,1.62,0,0,0,.85-.66,1.1,1.1,0,0,0,0-1,2.29,2.29,0,0,0-1.38-.86c1-.34,2.64-1,2.86-1.87A1.1,1.1,0,0,0,80,64.64a1.72,1.72,0,0,1-.63-1.56c0-.17.43-.33.82-.47.74-.27,1.75-.65,1.94-1.69C82.24,60.26,81.77,59.78,81.18,59.18ZM43.21,76a.18.18,0,0,1-.14.09h0a.24.24,0,0,1-.14-.05,16.76,16.76,0,0,1-4.68-13.24.18.18,0,0,1,.12-.17.22.22,0,0,1,.21,0C38.64,62.74,47.57,69.28,43.21,76Z"/><path class="cls-1" d="M15.57,172.89C6.26,172.89,0,166.8,0,157.73s6.26-15.17,15.57-15.17c1.51,0,6.69.31,9.76,4.25a.12.12,0,0,1,0,.18l-4.85,4a.12.12,0,0,1-.17,0,6.62,6.62,0,0,0-5.33-2.3c-4.73,0-8.16,3.83-8.16,9.1s3.42,9.09,8,9.09a6.74,6.74,0,0,0,5.8-3,.1.1,0,0,1,.08-.05.16.16,0,0,1,.1,0L26,167.69a.14.14,0,0,1,0,.18,12.63,12.63,0,0,1-10.45,5Z"/><path class="cls-1" d="M46.23,172.16H40.17A.12.12,0,0,1,40,172v-9.62c0-2.14,0-5-3-5s-3.51,2.47-3.51,4.88V172a.12.12,0,0,1-.13.12H27.31a.12.12,0,0,1-.13-.12V141.47a.12.12,0,0,1,.13-.12h6.06a.12.12,0,0,1,.13.12v13.17A5.94,5.94,0,0,1,39,151.78c6.5,0,7.4,4.53,7.4,9.42V172a.12.12,0,0,1-.13.12Z"/><path class="cls-1" d="M55.62,172.16H49.55a.12.12,0,0,1-.12-.12V152.39a.12.12,0,0,1,.12-.13h6.07a.12.12,0,0,1,.12.13V172a.12.12,0,0,1-.12.12Zm-3-22.32a3.64,3.64,0,1,1,3.64-3.64,3.65,3.65,0,0,1-3.64,3.64Z"/><path class="cls-1" d="M65.12,172.16H59.05a.12.12,0,0,1-.12-.12V141.47a.12.12,0,0,1,.12-.12h6.07a.12.12,0,0,1,.13.12V172a.12.12,0,0,1-.13.12Z"/><path class="cls-1" d="M77.32,172.65c-5.85,0-9.79-4.13-9.79-10.27,0-5.14,3.19-10.6,9.11-10.6,2.78,0,4.91.84,6.18,2.45V141.47a.12.12,0,0,1,.12-.12H89a.12.12,0,0,1,.12.12V172a.12.12,0,0,1-.12.12H83.43a.12.12,0,0,1-.13-.12v-2.29a7.82,7.82,0,0,1-6,2.9Zm1.26-15.28a4.85,4.85,0,1,0,4.72,4.84,4.49,4.49,0,0,0-4.72-4.84Z"/><path class="cls-1" d="M98.73,172.16H92.67a.12.12,0,0,1-.13-.12V152.39a.13.13,0,0,1,.13-.13h6.06a.12.12,0,0,1,.12.13v2.8a6,6,0,0,1,5.62-3.41,7.78,7.78,0,0,1,2.06.21.12.12,0,0,1,.09.12v5.53a.12.12,0,0,1-.05.1.09.09,0,0,1-.11,0,9.26,9.26,0,0,0-2.55-.39c-4.27,0-5.06,2.17-5.06,6.46V172a.12.12,0,0,1-.12.12Z"/><path class="cls-1" d="M117.82,172.65c-6.4,0-11-4.39-11-10.44s4.65-10.43,11-10.43c5.67,0,9.34,4.09,9.34,10.43v1.9a.13.13,0,0,1-.12.13H113.12a4.38,4.38,0,0,0,4.41,3.55,5,5,0,0,0,4.23-2.33.12.12,0,0,1,.17,0l4.25,3.11a.13.13,0,0,1,0,.09.16.16,0,0,1,0,.09,10.83,10.83,0,0,1-8.38,3.93Zm-4.72-12.78h7.74a3.46,3.46,0,0,0-1-2.41,3.57,3.57,0,0,0-2.6-1.06,3.91,3.91,0,0,0-4.15,3.47Z"/><path class="cls-1" d="M148.58,172.16h-6.07a.12.12,0,0,1-.12-.12v-9.62c0-2.14,0-5-3-5s-3.52,2.47-3.52,4.88V172a.12.12,0,0,1-.12.12h-6.07a.12.12,0,0,1-.12-.12V152.39a.12.12,0,0,1,.12-.13h5.83a.12.12,0,0,1,.12.13v2.32a6.62,6.62,0,0,1,5.7-2.93c6.51,0,7.4,4.53,7.4,9.42V172a.12.12,0,0,1-.12.12Z"/><path class="cls-1" d="M154.72,154.94h-5.17a.12.12,0,0,1-.1-.05.11.11,0,0,1,0-.11l3-11.4a.11.11,0,0,1,.12-.09h5.82a.1.1,0,0,1,.1.05.11.11,0,0,1,0,.11l-3.64,11.4a.12.12,0,0,1-.12.09Z"/><path class="cls-1" d="M162.49,172.65c-1.93,0-5.51-.35-7.82-2.71a.14.14,0,0,1,0-.17l3.68-4.08a.12.12,0,0,1,.1,0,.11.11,0,0,1,.09,0,5.15,5.15,0,0,0,4.19,2.1c.61,0,2.62-.09,2.62-1.29s-1.5-1.46-3.41-1.87c-3-.65-6.82-1.46-6.82-6.1s4.21-6.75,8.38-6.75c1.83,0,5.22.34,7.37,2.63a.12.12,0,0,1,0,.17l-3.72,3.68a.11.11,0,0,1-.09,0,.13.13,0,0,1-.09-.05,4.21,4.21,0,0,0-3.42-1.61c-.78,0-2.1.31-2.1,1.49,0,1,1.44,1.33,3.27,1.72,2.94.63,7,1.5,7,6.21,0,6.11-7,6.59-9.18,6.59Z"/><path class="cls-1" d="M52.11,204.9H40.39a.13.13,0,0,1-.13-.13V176.14a.13.13,0,0,1,.13-.12H51.06c4.55,0,10.6.77,10.6,7.4A6.5,6.5,0,0,1,57,189.74a7,7,0,0,1,6,7.07c0,6-5.62,8.09-10.88,8.09Zm-5.29-5.59h5.53c2,0,4.09-.85,4.09-3.23s-2.71-3-5-3H46.82v6.26Zm0-11.85h4.44c.9,0,3.84-.21,3.84-3,0-2.49-2.58-2.86-4.12-2.86H46.82v5.85Z"/><path class="cls-1" d="M71.76,205.38c-6.5,0-7.4-4.53-7.4-9.42V185.12a.12.12,0,0,1,.13-.12h6.06a.12.12,0,0,1,.12.12v9.63c0,2.13,0,5.05,3,5.05s3.52-2.48,3.52-4.89v-9.79a.12.12,0,0,1,.12-.12h6.07a.12.12,0,0,1,.12.12v19.65a.12.12,0,0,1-.12.13H77.59a.13.13,0,0,1-.13-.13v-2.32a6.59,6.59,0,0,1-5.7,2.93Z"/><path class="cls-1" d="M92.86,204.9H86.8a.13.13,0,0,1-.13-.13V185.12a.12.12,0,0,1,.13-.12h6.06a.12.12,0,0,1,.13.12v2.81a6,6,0,0,1,5.61-3.42,7.78,7.78,0,0,1,2.06.21.12.12,0,0,1,.09.12v5.54a.13.13,0,0,1-.16.12,9.19,9.19,0,0,0-2.55-.4c-4.27,0-5.05,2.18-5.05,6.47v8.2a.13.13,0,0,1-.13.13Z"/><path class="cls-1" d="M112,205.38c-6.4,0-11-4.39-11-10.43s4.64-10.44,11-10.44c5.67,0,9.34,4.1,9.34,10.44v1.9a.12.12,0,0,1-.12.12H107.25a4.38,4.38,0,0,0,4.42,3.55,5,5,0,0,0,4.22-2.33.13.13,0,0,1,.18,0l4.24,3.12a.1.1,0,0,1,0,.08.1.1,0,0,1,0,.09,10.84,10.84,0,0,1-8.39,3.93Zm-4.72-12.78H115a3.44,3.44,0,0,0-1-2.41,3.61,3.61,0,0,0-2.6-1.06,3.91,3.91,0,0,0-4.15,3.47Z"/><path class="cls-1" d="M129.49,205.38c-3.43,0-7.12-1.93-7.12-6.19,0-7,8.58-7,13.3-7a3.47,3.47,0,0,0-3.75-3.26,6.31,6.31,0,0,0-4.84,2.3s-.07,0-.09,0a.1.1,0,0,1-.09,0l-3.24-3.31a.18.18,0,0,1,0-.09.19.19,0,0,1,0-.09,12.76,12.76,0,0,1,8.74-3.19c7.56,0,9.1,4.11,9.1,10.28v10a.12.12,0,0,1-.12.13H135.8a.13.13,0,0,1-.13-.13v-2.15a7.23,7.23,0,0,1-6.18,2.76Zm4.81-9.09c-3.88,0-5.86.91-5.86,2.7,0,1.33,1.39,2,2.75,2,2.16,0,4.48-1.11,4.48-3.56v-1.16Z"/><path class="cls-1" d="M151,205.38c-6.5,0-7.4-4.53-7.4-9.42V185.12a.12.12,0,0,1,.13-.12h6.06a.12.12,0,0,1,.13.12v9.63c0,2.13,0,5.05,3,5.05s3.52-2.48,3.52-4.89v-9.79a.12.12,0,0,1,.12-.12h6.07a.12.12,0,0,1,.12.12v19.65a.12.12,0,0,1-.12.13h-5.82a.13.13,0,0,1-.13-.13v-2.32a6.59,6.59,0,0,1-5.7,2.93Z"/></g></g></svg>