<svg id="Layer_1" data-name="Layer 1" xmlns="http://www.w3.org/2000/svg" viewBox="0 0 1000 268.28"><defs><style>.cls-1{fill:#7b7ebc;}.cls-2{fill:#fff453;}.cls-3{fill:#00acd4;}.cls-4{fill:#ed1261;}.cls-5{fill:#fff;}</style></defs><g id="cwig-logo-inverse-cmyk"><rect class="cls-1" x="59.33" y="180.47" width="38.05" height="37.33"/><rect class="cls-2" x="59.33" y="138.3" width="44.66" height="37.33"/><rect class="cls-3" x="165.58" y="180.47" width="18.41" height="37.33"/><rect class="cls-1" x="157.24" y="138.3" width="26.75" height="37.33"/><rect class="cls-3" x="122.84" y="96.12" width="9.15" height="37.33"/><rect class="cls-4" x="136.85" y="96.12" width="47.14" height="37.33"/><rect class="cls-1" x="59.33" y="96.12" width="58.39" height="37.33"/><rect class="cls-4" x="109.24" y="138.3" width="43.14" height="37.33"/><rect class="cls-2" x="101.48" y="180.47" width="59.64" height="37.33"/><polygon class="cls-4" points="25.3 97.98 141.11 36.39 152.14 47.42 29.89 108.09 25.3 97.98"/><polygon class="cls-4" points="98.83 29.96 232.11 96.6 222.46 114.99 97.45 46.05 98.83 29.96"/><path class="cls-5" d="M268.65,148.21c-18.59,0-24.58-12.37-24.58-25.61,0-16.86,8.82-28.68,26.63-28.68A44.45,44.45,0,0,1,282,95.34l-1.11,9.3a37.68,37.68,0,0,0-10.71-1.58c-9.93,0-14.81,7.49-14.81,17.81,0,11.58,4.8,18,15.52,18a28.15,28.15,0,0,0,10.32-2.21l1.18,9.14A41.25,41.25,0,0,1,268.65,148.21Z"/><path class="cls-5" d="M315.14,147.5V122.44c0-4.09-1.11-6.54-4.81-6.54-5.12,0-9.14,5.83-9.14,12.69V147.5H291.11V90h10.08v16.78a38.4,38.4,0,0,1-.71,8l.16.08c2.28-4.41,6.78-7.33,12.84-7.33,8.83,0,11.66,5.68,11.66,12.53v27.5Z"/><path class="cls-5" d="M341.14,103.3a6.11,6.11,0,1,1,6.3-6.15A6.24,6.24,0,0,1,341.14,103.3Zm-5.05,44.2V108.34h10.09V147.5Z"/><path class="cls-5" d="M357.05,147.5V90h10.09V147.5Z"/><path class="cls-5" d="M401.64,147.5a47.54,47.54,0,0,1,.48-6.54H402c-2,4.33-6.38,7.4-12.37,7.4-9.53,0-14.26-7.16-14.26-18.35,0-13.24,7.72-22.38,20.72-22.38a35.08,35.08,0,0,1,5,.32V90h10V147.5ZM401,116.22a24.92,24.92,0,0,0-5.27-.63c-5.76,0-9.85,3.62-9.85,13.31,0,7.33,2.12,11.11,6.69,11.11,5.28,0,8.43-6.14,8.43-12.84Z"/><path class="cls-5" d="M490.66,147.5H478.05l-7.72-29.31a89,89,0,0,1-2.05-11h-.08a68.29,68.29,0,0,1-2,10.71l-7.72,29.55h-11.9L433.06,94.32H444l7.25,29.38a92.47,92.47,0,0,1,2,10.8h.08A92,92,0,0,1,455.36,124l8.11-29.7h10.88l8.19,29.54a78.47,78.47,0,0,1,2.13,10.32h.08c.55-3.7,1.18-7,2-10.16L494,94.32h10.24Z"/><path class="cls-5" d="M540.21,129.53H515.94c-.08,7.33,3.55,10.88,10.8,10.88A28,28,0,0,0,538.16,138l1,7.81a39,39,0,0,1-14,2.52c-12.45,0-19.38-6.23-19.38-20,0-12,6.62-20.8,18.36-20.8,11.42,0,16.47,7.8,16.47,17.5A32,32,0,0,1,540.21,129.53Zm-16.47-14.65c-4.17,0-7.09,3.07-7.64,7.8h14.42C530.68,117.8,528,114.88,523.74,114.88Z"/><path class="cls-5" d="M549,147.5V90H559V147.5Z"/><path class="cls-5" d="M593.23,98.26a15,15,0,0,0-4.88-.71c-4.41,0-6.38,2.28-6.38,7.48v3.31h9.14v7.8H582V147.5H572V116.14H565.1v-7.8H572v-3.15c0-10.64,4.88-15.84,15.6-15.84a28.9,28.9,0,0,1,6.38.63Z"/><path class="cls-5" d="M616.86,147.5a45.33,45.33,0,0,1,.39-6.62l-.08-.08c-1.89,4.41-6.7,7.49-12.53,7.49-7.09,0-11.18-4-11.18-10.33,0-9.37,9.29-14.33,22.61-14.33V121.5c0-4.1-2-6.23-7.64-6.23a25.74,25.74,0,0,0-11.59,3.08l-.86-8.43a42.73,42.73,0,0,1,14-2.45c12.61,0,16.15,5.12,16.15,13.63v16.31c0,3.16.08,6.86.24,10.09Zm-.79-17.34c-10.64,0-13,3.08-13,6.23,0,2.52,1.73,4.18,4.65,4.18,5,0,8.35-4.73,8.35-9.46Z"/><path class="cls-5" d="M658.14,117.4c-7.25-1.5-10.87,3.23-10.87,14.1v16H637.18V108.34h9.54a52.28,52.28,0,0,1-.71,7.88h.15c1.9-5,5.68-9.3,12.45-8.75Z"/><path class="cls-5" d="M696.35,129.53H672.08c-.08,7.33,3.54,10.88,10.79,10.88A28,28,0,0,0,694.3,138l.94,7.81a39,39,0,0,1-14,2.52c-12.45,0-19.38-6.23-19.38-20,0-12,6.61-20.8,18.35-20.8,11.43,0,16.47,7.8,16.47,17.5A33.45,33.45,0,0,1,696.35,129.53Zm-16.47-14.65c-4.18,0-7.09,3.07-7.64,7.8h14.41C686.81,117.8,684.13,114.88,679.88,114.88Z"/><path class="cls-5" d="M246.59,218.78V165.6h10.24v53.18Z"/><path class="cls-5" d="M291.81,218.78V193.73c0-4.1-1.1-6.54-4.8-6.54-5.12,0-9.14,5.83-9.14,12.68v18.91H267.78V179.63h9.54a43.6,43.6,0,0,1-.55,6.93l.07.08a14.31,14.31,0,0,1,13.32-7.88c8.82,0,11.66,5.67,11.66,12.53v27.49Z"/><path class="cls-5" d="M336.09,169.54a15.27,15.27,0,0,0-4.88-.71c-4.41,0-6.38,2.29-6.38,7.49v3.31H334v7.8h-9.14v31.35h-10V187.43H308v-7.8h6.85v-3.16c0-10.63,4.89-15.83,15.6-15.83a28.31,28.31,0,0,1,6.38.63Z"/><path class="cls-5" d="M354.91,219.57c-11.11,0-18.28-5.75-18.28-19.7,0-12.21,8.12-21,20-21,11.11,0,18.27,6.14,18.27,19.62C374.92,210.75,366.65,219.57,354.91,219.57Zm1-32.22c-4.49,0-8.91,3.46-8.91,11.5S350,211,355.78,211c5,0,8.74-4,8.74-12C364.52,191.44,361.85,187.35,355.94,187.35Z"/><path class="cls-5" d="M404,188.69c-7.25-1.5-10.88,3.23-10.88,14.1v16H383V179.63h9.53a50.79,50.79,0,0,1-.71,7.87H392c1.89-5,5.67-9.29,12.45-8.74Z"/><path class="cls-5" d="M458.28,218.78V194c0-4.17-.94-6.77-4.65-6.77-4.41,0-9,5.2-9,12.84v18.75h-9.93V194c0-3.86-.78-6.77-4.64-6.77-4.65,0-9,5.51-9,12.84v18.75H411V179.63h9.53a45.56,45.56,0,0,1-.55,7h.16a14,14,0,0,1,12.92-7.88c6.93,0,9.85,4.1,10.79,7.88a13.9,13.9,0,0,1,12.77-7.88c7.56,0,11.74,4.17,11.74,13.08v26.94Z"/><path class="cls-5" d="M500.2,218.78a45.2,45.2,0,0,1,.39-6.61l-.08-.08c-1.89,4.41-6.69,7.48-12.53,7.48-7.09,0-11.18-4-11.18-10.32,0-9.38,9.29-14.34,22.61-14.34v-2.13c0-4.09-2-6.22-7.64-6.22a25.65,25.65,0,0,0-11.58,3.07l-.87-8.43a42.74,42.74,0,0,1,14-2.44c12.61,0,16.16,5.12,16.16,13.63V208.7c0,3.15.07,6.85.23,10.08Zm-.79-17.33c-10.64,0-13,3.07-13,6.22,0,2.52,1.73,4.18,4.65,4.18,5,0,8.35-4.73,8.35-9.45Z"/><path class="cls-5" d="M532.9,219.57c-8.67,0-11.35-3.15-11.35-12.29V187.43h-6.78v-7.8h6.7V167.57l10.09-2.68v14.74h9.53v7.8h-9.53V204.6c0,5,1.18,6.46,4.64,6.46a19,19,0,0,0,4.89-.63v8.12A34.86,34.86,0,0,1,532.9,219.57Z"/><path class="cls-5" d="M554.33,174.58a6.11,6.11,0,1,1,6.3-6.14A6.23,6.23,0,0,1,554.33,174.58Zm-5.05,44.2V179.63h10.09v39.15Z"/><path class="cls-5" d="M585.68,219.57c-11.11,0-18.28-5.75-18.28-19.7,0-12.21,8.12-21,20-21,11.1,0,18.28,6.14,18.28,19.62C605.7,210.75,597.42,219.57,585.68,219.57Zm1-32.22c-4.5,0-8.91,3.46-8.91,11.5S580.72,211,586.55,211c5,0,8.74-4,8.74-12C595.29,191.44,592.61,187.35,586.71,187.35Z"/><path class="cls-5" d="M637.84,218.78V193.73c0-4.1-1.1-6.54-4.81-6.54-5.12,0-9.14,5.83-9.14,12.68v18.91H613.81V179.63h9.53a43.6,43.6,0,0,1-.55,6.93l.08.08a14.29,14.29,0,0,1,13.32-7.88c8.82,0,11.66,5.67,11.66,12.53v27.49Z"/><path class="cls-5" d="M716.63,176.63A39.52,39.52,0,0,0,702.52,174c-10.47,0-18,6.62-18,18.52,0,11.26,6.15,17.88,16.94,17.88a22.77,22.77,0,0,0,6.78-.94V190.89h10.24v25.37a50.15,50.15,0,0,1-18.2,3.31c-16.86,0-26.87-9.93-26.87-26.16,0-16.7,11.35-28.6,29.78-28.6a54.2,54.2,0,0,1,15.05,2.29Z"/><path class="cls-5" d="M750.11,218.78a43.81,43.81,0,0,1,.4-6.61l-.08-.08c-1.9,4.41-6.7,7.48-12.53,7.48-7.09,0-11.19-4-11.19-10.32,0-9.38,9.3-14.34,22.61-14.34v-2.13c0-4.09-2-6.22-7.64-6.22a25.68,25.68,0,0,0-11.58,3.07l-.87-8.43a42.75,42.75,0,0,1,14-2.44c12.6,0,16.15,5.12,16.15,13.63V208.7c0,3.15.08,6.85.24,10.08Zm-.79-17.33c-10.63,0-13,3.07-13,6.22,0,2.52,1.74,4.18,4.65,4.18,5,0,8.35-4.73,8.35-9.45Z"/><path class="cls-5" d="M782.81,219.57c-8.67,0-11.35-3.15-11.35-12.29V187.43h-6.78v-7.8h6.7V167.57l10.09-2.68v14.74H791v7.8h-9.53V204.6c0,5,1.18,6.46,4.64,6.46a19,19,0,0,0,4.89-.63v8.12A34.86,34.86,0,0,1,782.81,219.57Z"/><path class="cls-5" d="M831,200.82H806.68c-.08,7.33,3.55,10.87,10.79,10.87a28,28,0,0,0,11.43-2.44l.94,7.8a39,39,0,0,1-14,2.52c-12.45,0-19.38-6.22-19.38-20,0-12,6.62-20.8,18.35-20.8,11.43,0,16.47,7.8,16.47,17.49A33.59,33.59,0,0,1,831,200.82Zm-16.47-14.65c-4.18,0-7.09,3.07-7.64,7.79h14.42C821.41,189.08,818.73,186.17,814.48,186.17Z"/><path class="cls-5" d="M883.56,218.78H872.61l-5.67-17.41a87.37,87.37,0,0,1-2.21-8.74h-.08c-.78,3.62-1.65,6.61-2.67,9.84l-5,16.31h-10.4l-12-39.15h11l4.17,14.81c1,3.86,2.13,7.8,3.08,11.82H853a89,89,0,0,1,2.84-11.35l4.73-15.28h9.69l4.8,14.81a111.74,111.74,0,0,1,3.16,11.82h.15a109.2,109.2,0,0,1,2.76-11.35l4.41-15.28h10.32Z"/><path class="cls-5" d="M921.61,218.78a43.81,43.81,0,0,1,.4-6.61l-.08-.08c-1.89,4.41-6.7,7.48-12.53,7.48-7.09,0-11.19-4-11.19-10.32,0-9.38,9.3-14.34,22.61-14.34v-2.13c0-4.09-2-6.22-7.64-6.22a25.72,25.72,0,0,0-11.58,3.07l-.87-8.43a42.8,42.8,0,0,1,14-2.44c12.6,0,16.15,5.12,16.15,13.63V208.7c0,3.15.08,6.85.24,10.08Zm-.79-17.33c-10.63,0-13,3.07-13,6.22,0,2.52,1.74,4.18,4.65,4.18,5,0,8.35-4.73,8.35-9.45Z"/><path class="cls-5" d="M958.63,222.41c-4.65,12.21-8.75,15.91-17.73,15.91a25.3,25.3,0,0,1-5.51-.63L936,229a17.73,17.73,0,0,0,5.36.86c3.31,0,5.51-1.49,7.56-7.32l1.34-3.79-14.42-39.15h11.19l5.28,15c1.18,3.38,2.2,7.24,3.07,10.79h.08c.87-3.55,2.52-8.75,3.78-12.45l4.65-13.31H974.7Z"/></g></svg>